<?xml version="1.0" encoding="UTF-8"?><svg id="Layer_2" xmlns="http://www.w3.org/2000/svg" viewBox="0 0 79 89.13"><defs><style>.cls-1{fill:#fff;}</style></defs><g id="Layer_1-2"><path class="cls-1" d="M76.24,86.24h-6.81v-15.02h6.81c1.53,0,2.76-1.29,2.76-2.89V10.59c0-5.85-4.53-10.59-10.13-10.59H9.48V.02C4.24,.31,.05,4.8,0,10.3h0V78.64H0s0,.06,0,.1c0,5.73,4.5,10.4,10.04,10.4H77.62c.76,0,1.38-.65,1.38-1.44h0c0-.8-.62-1.44-1.38-1.44h-1.38ZM2.76,10.4c0-4.14,3.26-7.51,7.27-7.51h58.49c4.26,0,7.71,3.61,7.71,8.06v54.5c0,1.59-1.24,2.89-2.76,2.89H10.04c-2.86,0-5.44,1.25-7.27,3.24V10.4Zm63.9,75.85H10.04c-4.01,0-7.27-3.37-7.27-7.51s3.26-7.51,7.27-7.51h56.63v15.02Z"/></g></svg>