<?xml version="1.0" encoding="UTF-8"?><svg id="Layer_2" xmlns="http://www.w3.org/2000/svg" viewBox="0 0 94.75 86.6"><defs><style>.cls-1{fill:#fff;}.cls-2{fill:#43ff10;}</style></defs><g id="Layer_1-2"><path class="cls-2" d="M49.61,47.06c-1.27,3.22-5.62,3.7-7.56,.84h0c-6.37-9.4-14.57-15.19-18.69-17.71-1.46-.9-2.03-2.75-1.31-4.31l2.23-4.89c.78-1.71,3.01-2.13,4.36-.83,3.46,3.33,9.63,9.6,15.95,16.94,4.75-9.72,10.77-17.28,18.6-23.48C72.12,6.58,79.53,4.05,89.88,.17c1.39-.52,2.94,.19,3.45,1.59l1.28,3.49c.42,1.13-.16,2.39-1.29,2.82-23.91,8.96-34.66,15.99-43.7,38.99h0Z"/><path class="cls-1" d="M87.51,11.69c-1.13,.49-2.23,1-3.3,1.51,1.24,.83,1.87,1.12,3.13,2.12v54.96c-12.91-10.08-26.53-10.02-40.55,.17v-17.71c-1.02,.29-2.14,.2-3.12-.29v17.84c-12.91-10.08-26.53-10.02-40.55,.17V15.25c12.64-11.61,25.92-11.58,40.55,.07v16.97c.31,.35,.62,.71,.93,1.07,.7-1.43,1.43-2.82,2.19-4.16V15.25c7.65-7.02,14.59-10.41,22.86-8.92,1.28-.78,2.59-1.53,3.91-2.25-10.25-3.09-19.14,.14-28.41,8.44C29.3,.13,14.28,.44,.49,13.44l-.49,.46V85.04c0,1.31,1.52,2.04,2.54,1.21h0c14.51-11.77,22.41-14.6,39.96-.5l5.44,.04c20.05-13.52,26.76-11.33,39.91,.41,1.01,.9,2.6,.18,2.6-1.16V13.83l-.57-.47c-1-.82-1.38-.96-2.37-1.67Zm-.17,70.01c-12.91-10.08-19.34-12.86-39.39-.04h-5.44c-17.86-13.76-25.37-9.98-39.39,.21v-7.5c14.29-11.31,27.56-11.32,40.55-.04l3.12,.04c14.29-11.31,27.56-11.32,40.55-.04v7.37Z"/></g></svg>